<?xml version="1.0" encoding="utf-8"?>
<!-- Generator: Adobe Illustrator 16.0.0, SVG Export Plug-In . SVG Version: 6.00 Build 0)  -->
<!DOCTYPE svg PUBLIC "-//W3C//DTD SVG 1.1//EN" "http://www.w3.org/Graphics/SVG/1.1/DTD/svg11.dtd">
<svg version="1.1" id="Layer_1" xmlns="http://www.w3.org/2000/svg" xmlns:xlink="http://www.w3.org/1999/xlink" x="0px" y="0px"
	 width="1200px" height="1200px" viewBox="0 0 1200 1200" enable-background="new 0 0 1200 1200" xml:space="preserve">
<g>
	<g>
		<g>
			<path fill="#EA1B38" d="M599.996,804.468c-9.424,12.646-21.879,22.888-36.482,29.333c0.719,19.655,16.686,35.497,36.482,35.497
				c19.795,0,35.768-15.842,36.482-35.497C621.887,827.355,609.428,817.114,599.996,804.468z"/>
			<path fill="#FFFFFF" d="M940.732,490.414c7.131-98.258,8.822-190.344,1.08-223.293c-23.967,4.134-78.865,27.35-166.496,81.064
				c11.48,9.471,18.189,20.886,17.25,34.641c-16.574-7.732-34.5-14.178-53.592-19.364l-0.471-0.112
				c-0.113,0-0.225-0.028-0.328-0.028L599.996,639.69l-36.729-36.736l-45.286,38.821l-29.521,25.274l-221.88-24.635l-18.392-2.049
				l-15.154-1.672l-3.11-0.357l-0.254-0.057c0,0.62,0.113,1.146,0.113,1.767c0,4.115,0.385,8.174,0.602,12.233
				c0.112,1.559,0.141,3.043,0.253,4.566l0.207,0.037l7.826,0.846l10.147,1.146l18.801,2.086l180.233,20.012l21.562,2.405
				l-24.001,20.595h-44.37H277.41h-19.651h-3.697h-14.666h-0.254c0.433,1.561,1.043,3.045,1.551,4.604
				c1.466,4.586,2.889,9.246,4.622,13.774h14.883h4.52h19.988h116.34h22.906l-34.359,29.427l-47.626,5.336l-35.026,3.853
				l-20.379,2.255l-5.994,0.715l-13.764,1.521c3.546,5.77,6.99,11.613,10.903,17.193c0.032,0.02,0.032,0.02,0.032,0.02l16.396-1.823
				l4.303-0.45l21.413-2.406l45.022-4.979l-27.938,23.958c0.043,0.019,0.108,0.056,0.137,0.132
				c8.729,9.244,17.683,18.246,27.346,26.701c78.372,68.682,182.907,109.777,235.579,109.777
				c62.123,0,196.873-56.768,275.156-149.182c1.785-2.123,3.27-4.266,4.98-6.408l-60.734-6.764c-5.055-0.527-8.68-5.074-8.117-10.11
				c0.545-5.017,5.188-9.282,10.129-8.099l71.631,7.948c8.869-12.74,16.301-25.593,22.248-38.615H710.195
				c-5.055,0-9.18-4.134-9.18-9.188c0-5.074,4.125-9.189,9.18-9.189H922.58c4.943-14.205,8.213-28.543,9.791-43.012l-221.17,24.578
				c-0.32,0.037-0.686,0.057-1.006,0.057c-4.623,0-8.598-3.458-9.113-8.174c-0.564-5.018,3.062-9.584,8.107-10.11l224.215-24.897
				c0.113-11.068-0.432-22.23-2.293-33.43l-0.863-5.018l0.291-2.537c-1.043-61.888-17.898-112.482-50.877-152.62
				C907.623,453.678,927.09,469.303,940.732,490.414z M728.564,749.899h36.744c0,50.642-41.18,91.831-91.85,91.831
				c-0.32,0-0.602-0.056-0.93-0.112c-4.52,36.21-35.148,64.396-72.533,64.396c-37.381,0-68.024-28.187-72.544-64.396
				c-0.319,0.057-0.602,0.112-0.921,0.112c-50.65,0-91.846-41.189-91.846-91.831h36.732c0,30.385,24.719,55.095,55.113,55.095
				c30.377,0,55.105-24.71,55.105-55.095v-6.238c-28.676-17.307-48.838-67.254-18.369-67.254c36.729,0,36.729,0,73.465,0
				c30.459,0,10.297,49.947-18.379,67.254v6.238c0,30.385,24.73,55.095,55.105,55.095
				C703.854,804.994,728.564,780.284,728.564,749.899z M835.615,581.419c-28.703,28.693-125.42,21.535-125.42,21.535
				s-7.168-96.699,21.525-125.421c22.963-22.953,57.143-27.237,84.662-13.482l-12.41,24.785c-6.164-3.101-12.92-5.28-20.295-5.28
				c-25.33,0-45.926,20.613-45.926,45.925c0,25.331,20.596,45.916,45.926,45.916c25.32,0,45.906-20.585,45.906-45.916
				c0-7.385-2.152-14.131-5.271-20.294l24.785-12.402C862.844,524.295,858.578,558.484,835.615,581.419z M811.225,529.48
				c0,15.184-12.373,27.566-27.547,27.566c-15.184,0-27.557-12.383-27.557-27.566c0-15.164,12.373-27.547,27.557-27.547
				c4.434,0,8.455,1.306,12.186,3.156l-12.186,24.391l24.391-12.176C809.928,521.024,811.225,525.027,811.225,529.48z"/>
			<path fill="#FFFFFF" d="M357.882,471.041c-6.558,6.576-11.434,14.093-15.314,21.985c-15.216,30.893-10.325,69.264,15.314,94.913
				c19.013,18.997,61.24,24.128,96.577,24.86c3.086,0.057,6.205,0.132,9.179,0.132c15.813,0,26.834-0.846,26.834-0.846l7.893-0.563
				l0.563-7.893c0.301-3.721,1.193-18.114,0.836-36.267c-0.648-32.245-5.317-76.61-25.001-96.322
				c-24.974-24.964-64.65-29.587-95.576-14.62C371.436,460.17,364.111,464.821,357.882,471.041z M443.87,529.48
				c0,15.184-12.369,27.566-27.558,27.566c-15.164,0-27.543-12.383-27.543-27.566c0-15.164,12.379-27.547,27.543-27.547
				c4.463,0,8.476,1.306,12.215,3.156l-12.215,24.391l24.4-12.176C442.578,521.024,443.87,525.027,443.87,529.48z M440.858,480.398
				l-4.194,8.438c-6.211-3.101-12.942-5.28-20.352-5.28c-25.32,0-45.915,20.613-45.915,45.925c0,25.331,20.595,45.916,45.915,45.916
				c25.335,0,45.926-20.585,45.926-45.916c0-7.385-2.143-14.131-5.271-20.294l8.429-4.228l6.313-3.157
				c6.163,17.081,8.757,40.447,9.476,61.56c0.319,10.908,0.286,20.971-0.043,29.201c-0.573,0.563-1.146,1.146-1.719,1.71
				c-4.275,0.169-9.499,0.281-15.785,0.281c-4.627,0-8.54-0.395-12.918-0.525c-39.457-1.278-68.616-7.874-79.853-19.083
				c-25.067-25.095-25.067-65.844,0-90.901c12.157-12.177,28.304-18.866,45.445-18.866c10.166,0,19.811,2.594,28.633,7.057
				L440.858,480.398z"/>
			<path fill="#FFFFFF" d="M281.398,439.115c1.729,0.47,3.228,1.127,5.21,1.409c7.196,1.09,12.979,0.395,18.151-0.939
				c15.531-4.078,22.888-16.818,26.11-27.397c2.434-8.08,2.725-14.704,2.725-14.704s4.849,1.325,11.575,2.189
				c0.789,0.15,1.551,0.263,2.415,0.338c15.254,1.616,38.817,0.037,48.641-22.624c0.652-1.466,0.55-2.744,1.052-4.172
				c0.789-2.198,1.146-4.172,1.616-6.258c1.682-7.44,1.931-14.262,0.386-20.275c-2.838-11.012-9.865-19.73-19.364-25.143
				c-50.125-28.148-97.338-50.397-121.719-54.456c-5.365,22.615-6.22,73.153-3.946,134.431
				C254.494,407.32,255.246,432.097,281.398,439.115z"/>
		</g>
		<g>
			<path d="M235.516,689.824c1.07,4.792,2.518,9.452,3.88,14.149h14.666h3.697h19.651h123.635h44.37l24.001-20.595l-21.562-2.405
				L267.62,660.962l-18.801-2.086l-10.147-1.146l-7.826-0.846c0.47,6.201,0.902,12.402,1.842,18.453
				C233.477,680.222,234.444,685.07,235.516,689.824z"/>
			<path d="M526.531,804.994c-30.395,0-55.113-24.71-55.113-55.095h-36.732c0,50.642,41.195,91.831,91.846,91.831
				c0.319,0,0.602-0.056,0.921-0.112c4.52,36.21,35.163,64.396,72.544,64.396c37.385,0,68.014-28.187,72.533-64.396
				c0.328,0.057,0.609,0.112,0.93,0.112c50.67,0,91.85-41.189,91.85-91.831h-36.744c0,30.385-24.711,55.095-55.105,55.095
				c-30.375,0-55.105-24.71-55.105-55.095v-6.238c28.676-17.307,48.838-67.254,18.379-67.254c-36.736,0-36.736,0-73.465,0
				c-30.469,0-10.307,49.947,18.369,67.254v6.238C581.637,780.284,556.908,804.994,526.531,804.994z M636.479,833.801
				c-0.715,19.655-16.688,35.497-36.482,35.497c-19.797,0-35.764-15.842-36.482-35.497c14.604-6.445,27.059-16.687,36.482-29.333
				C609.428,817.114,621.887,827.355,636.479,833.801z"/>
			<path d="M731.721,477.533c-28.693,28.722-21.525,125.421-21.525,125.421s96.717,7.158,125.42-21.535
				c22.963-22.935,27.229-57.124,13.482-84.635l-24.785,12.402c3.119,6.163,5.271,12.909,5.271,20.294
				c0,25.331-20.586,45.916-45.906,45.916c-25.33,0-45.926-20.585-45.926-45.916c0-25.312,20.596-45.925,45.926-45.925
				c7.375,0,14.131,2.18,20.295,5.28l12.41-24.785C788.863,450.296,754.684,454.58,731.721,477.533z"/>
			<path d="M783.678,501.934c-15.184,0-27.557,12.383-27.557,27.547c0,15.184,12.373,27.566,27.557,27.566
				c15.174,0,27.547-12.383,27.547-27.566c0-4.453-1.297-8.456-3.156-12.176l-24.391,12.176l12.186-24.391
				C792.133,503.239,788.111,501.934,783.678,501.934z"/>
			<path d="M416.312,501.934c-15.164,0-27.543,12.383-27.543,27.547c0,15.184,12.379,27.566,27.543,27.566
				c15.188,0,27.558-12.383,27.558-27.566c0-4.453-1.292-8.456-3.157-12.176l-24.4,12.176l12.215-24.391
				C424.788,503.239,420.775,501.934,416.312,501.934z"/>
			<path d="M465.396,504.959l-8.429,4.228c3.129,6.163,5.271,12.909,5.271,20.294c0,25.331-20.591,45.916-45.926,45.916
				c-25.32,0-45.915-20.585-45.915-45.916c0-25.312,20.595-45.925,45.915-45.925c7.409,0,14.141,2.18,20.352,5.28l4.194-8.438
				l4.087-8.164c-8.822-4.463-18.467-7.057-28.633-7.057c-17.142,0-33.288,6.689-45.445,18.866
				c-25.067,25.058-25.067,65.807,0,90.901c11.236,11.209,40.396,17.805,79.853,19.083c4.378,0.131,8.291,0.525,12.918,0.525
				c7.033,0,13.018-0.131,17.462-0.301c0.371-8.437,0.446-19.308,0.085-30.892c-0.719-21.112-3.312-44.479-9.476-61.56
				L465.396,504.959z"/>
			<path d="M1041.811,777.522l-108.426-12.064c8.344-13.85,15.766-28.111,21.516-43.106h85.914c5.072,0,9.188-4.134,9.188-9.188
				c0-5.074-4.115-9.189-9.188-9.189h-80.219c4.453-15.221,7.355-30.893,8.531-47.09l72.684-8.1
				c5.072-0.525,8.699-5.073,8.117-10.09c-0.527-5.037-5.168-8.682-10.109-8.118l-69.752,7.761
				c-0.104-11.594-0.715-23.32-2.725-35.383c0,0,36.736-330.619,0-367.346c-4.078-4.087-10.439-5.892-18.51-5.892
				c-47.598,0-154.857,63.223-207.771,96.313c-43.428-11.368-91.053-16.939-141.064-16.939c-50.014,0-97.611,5.571-141.065,16.939
				c-61.831-38.7-198.095-118.637-226.29-90.422c-36.728,36.727,0,367.346,0,367.346c-2.002,12.062-2.612,23.789-2.716,35.383
				l3.11,0.357l15.154,1.672l18.392,2.049l221.88,24.635l29.521-25.274l45.286-38.821l36.729,36.736l138.18-276.369
				c0.104,0,0.215,0.028,0.328,0.028l0.471,0.112c19.092,5.187,37.018,11.632,53.592,19.364c0.939-13.755-5.77-25.17-17.25-34.641
				c87.631-53.715,142.529-76.931,166.496-81.064c7.742,32.949,6.051,125.035-1.08,223.293
				c-13.643-21.111-33.109-36.736-61.07-41.604c32.979,40.138,49.834,90.732,50.877,152.62l-0.291,2.537l0.863,5.018
				c1.861,11.199,2.406,22.361,2.293,33.43l-224.215,24.897c-5.045,0.526-8.672,5.093-8.107,10.11
				c0.516,4.716,4.49,8.174,9.113,8.174c0.32,0,0.686-0.02,1.006-0.057l221.17-24.578c-1.578,14.469-4.848,28.807-9.791,43.012
				H710.195c-5.055,0-9.18,4.115-9.18,9.189c0,5.055,4.125,9.188,9.18,9.188h205.094c-5.947,13.022-13.379,25.875-22.248,38.615
				l-71.631-7.948c-4.941-1.184-9.584,3.082-10.129,8.099c-0.562,5.036,3.062,9.583,8.117,10.11l60.734,6.764
				c-1.711,2.143-3.195,4.285-4.98,6.408c-78.283,92.414-213.033,149.182-275.156,149.182c-52.672,0-157.207-41.096-235.579-109.777
				c-9.663-8.455-18.617-17.457-27.346-26.701c-0.028-0.076-0.094-0.113-0.137-0.132l27.938-23.958l-45.022,4.979l-21.413,2.406
				l-4.303,0.45l-16.396,1.823c0,0,0,0-0.032-0.02c-3.913-5.58-7.357-11.424-10.903-17.193l13.764-1.521l5.994-0.715l20.379-2.255
				l35.026-3.853l47.626-5.336l34.359-29.427h-22.906h-116.34h-19.988h-4.52h-14.883c-1.733-4.528-3.156-9.188-4.622-13.774
				c-0.508-1.559-1.118-3.043-1.551-4.604h-79.965c-5.05,0-9.18,4.115-9.18,9.189c0,5.055,4.13,9.188,9.18,9.188h85.922
				c0.244,0.62,0.61,1.24,0.855,1.897c1.841,4.642,4.096,9.189,6.2,13.718c4.309,9.414,9.086,18.585,14.47,27.454l-108.452,12.102
				c-5.051,0.525-8.682,5.092-8.1,10.109c0.489,4.717,4.482,8.174,9.104,8.174c0.319,0,0.677,0,0.996-0.057l117.237-13.078
				c5.496,7.873,11.565,15.333,17.725,22.756c0.221,0.281,0.47,0.582,0.69,0.864c6.699,7.948,13.736,15.671,21.088,23.15
				l0.855-0.112c87.251,88.393,216.721,140.97,282.228,140.97c76.412,0,240.994-70.767,322.584-187.571l117.238,13.021
				c0.318,0.037,0.676,0.057,0.996,0.057c4.641,0,8.605-3.457,9.113-8.174C1050.51,782.614,1046.883,778.048,1041.811,777.522z
				 M498.928,603.63l-0.563,7.893l-7.893,0.563c0,0-11.021,0.846-26.834,0.846c-2.974,0-6.093-0.075-9.179-0.132
				c-35.337-0.732-77.564-5.863-96.577-24.86c-25.64-25.649-30.53-64.021-15.314-94.913c3.881-7.893,8.757-15.409,15.314-21.985
				c6.229-6.22,13.554-10.871,21.305-14.62c30.926-14.967,70.603-10.344,95.576,14.62c19.684,19.712,24.353,64.077,25.001,96.322
				C500.121,585.516,499.229,599.909,498.928,603.63z M258.196,267.083c24.381,4.059,71.594,26.308,121.719,54.456
				c9.499,5.412,16.526,14.131,19.364,25.143c1.545,6.014,1.296,12.835-0.386,20.275c-0.47,2.086-0.827,4.06-1.616,6.258
				c-0.502,1.428-0.399,2.706-1.052,4.172c-9.823,22.661-33.387,24.24-48.641,22.624c-0.864-0.075-1.626-0.188-2.415-0.338
				c-6.727-0.864-11.575-2.189-11.575-2.189s-0.291,6.624-2.725,14.704c-3.223,10.579-10.579,23.319-26.11,27.397
				c-5.172,1.334-10.955,2.029-18.151,0.939c-1.982-0.282-3.481-0.939-5.21-1.409c-26.152-7.019-26.904-31.795-27.148-37.602
				C251.977,340.236,252.831,289.698,258.196,267.083z"/>
			<path d="M158.172,648.784l72.467,8.1h0.207l-0.207-0.037c-0.112-1.523-0.141-3.008-0.253-4.566
				c-0.217-4.078-0.602-8.118-0.602-12.233c0-0.62-0.113-1.146-0.113-1.767l-69.498-7.704c-5.158-1.146-9.564,3.044-10.101,8.118
				C149.49,643.711,153.121,648.259,158.172,648.784z"/>
		</g>
	</g>
</g>
</svg>
